<svg xmlns="http://www.w3.org/2000/svg" xmlns:xlink="http://www.w3.org/1999/xlink" width="2000" zoomAndPan="magnify" viewBox="0 0 1500 1499.999933" height="2000" preserveAspectRatio="xMidYMid meet" version="1.0"><defs><g/><clipPath id="254f015447"><rect x="0" width="1241" y="0" height="315"/></clipPath></defs><path stroke-linecap="butt" transform="matrix(0, -4.769264, -4.769264, 0, 749.901761, 39.443414)" fill="none" stroke-linejoin="miter" d="M -0.000398061 -0.000122239 C -0.000398061 2.43818 -0.0601885 4.874024 -0.179769 7.30905 C -0.29935 9.744076 -0.478721 12.175006 -0.717064 14.601022 C -0.956225 17.027038 -1.254358 19.446502 -1.612282 21.857775 C -1.970205 24.269049 -2.3871 26.670493 -2.862147 29.062109 C -3.338013 31.452907 -3.872031 33.830599 -4.464202 36.196006 C -5.056373 38.560593 -5.706696 40.909619 -6.414352 43.242264 C -7.122009 45.575728 -7.886998 47.889534 -8.707683 50.185322 C -9.529187 52.480291 -10.406386 54.754783 -11.33928 57.007161 C -12.272174 59.25954 -13.259944 61.487347 -14.30259 63.691401 C -15.344418 65.894636 -16.440302 68.071662 -17.589424 70.222479 C -18.738547 72.372476 -19.940088 74.492988 -21.19323 76.584014 C -22.44719 78.67504 -23.751112 80.734123 -25.104996 82.761264 C -26.4597 84.788404 -27.862726 86.781145 -29.315715 88.738666 C -30.767885 90.697007 -32.26674 92.61849 -33.813919 94.503116 C -35.360279 96.387743 -36.952506 98.233055 -38.58978 100.039052 C -40.227054 101.845869 -41.906919 103.610915 -43.631012 105.335008 C -45.355105 107.059101 -47.120151 108.738966 -48.926149 110.37624 C -50.732965 112.013514 -52.578278 113.605741 -54.462904 115.152101 C -56.34753 116.69928 -58.269014 118.198135 -60.227354 119.650305 C -62.184875 121.102475 -64.177616 122.506321 -66.204756 123.861024 C -68.231897 125.214908 -70.29098 126.51883 -72.382006 127.77279 C -74.473032 129.025932 -76.593544 130.226654 -78.743541 131.376596 C -80.894358 132.525718 -83.070565 133.621602 -85.274619 134.66343 C -87.478674 135.706076 -89.70648 136.693846 -91.958859 137.62674 C -94.211237 138.559635 -96.485729 139.436834 -98.780698 140.258337 C -101.076486 141.079022 -103.390292 141.844012 -105.723756 142.551668 C -108.056401 143.259324 -110.405427 143.909647 -112.770015 144.501818 C -115.135421 145.093989 -117.513114 145.628007 -119.903911 146.103873 C -122.295527 146.57892 -124.696972 146.995815 -127.108245 147.353738 C -129.519518 147.711662 -131.938982 148.009795 -134.364998 148.248956 C -136.791014 148.487299 -139.221945 148.66667 -141.65697 148.786251 C -144.091996 148.905832 -146.527841 148.965622 -148.966142 148.965622 C -151.403625 148.965622 -153.840289 148.905832 -156.275314 148.786251 C -158.71034 148.66667 -161.141271 148.487299 -163.567287 148.248956 C -165.993303 148.009795 -168.411947 147.711662 -170.82404 147.353738 C -173.235313 146.995815 -175.636758 146.57892 -178.027555 146.103873 C -180.419171 145.628007 -182.796863 145.093989 -185.161451 144.501818 C -187.526858 143.909647 -189.875883 143.259324 -192.208528 142.551668 C -194.541173 141.844012 -196.855799 141.079022 -199.150768 140.258337 C -201.446555 139.436834 -203.720229 138.559635 -205.972607 137.62674 C -208.224985 136.693846 -210.453611 135.706076 -212.656847 134.66343 C -214.860901 133.621602 -217.037927 132.525718 -219.187924 131.376596 C -221.337922 130.226654 -223.458433 129.025932 -225.54946 127.771971 C -227.640486 126.51883 -229.699569 125.214908 -231.726709 123.861024 C -233.75385 122.506321 -235.74659 121.102475 -237.704931 119.650305 C -239.663271 118.198135 -241.584755 116.69928 -243.469381 115.152101 C -245.353188 113.605741 -247.199319 112.013514 -249.005317 110.37624 C -250.812134 108.738966 -252.577179 107.059101 -254.300453 105.335008 C -256.024547 103.610915 -257.70523 101.845869 -259.342505 100.039052 C -260.979779 98.233055 -262.572005 96.387743 -264.118365 94.503116 C -265.664725 92.61849 -267.1644 90.697007 -268.61657 88.738666 C -270.068739 86.781145 -271.472585 84.788404 -272.826469 82.761264 C -274.181172 80.734123 -275.485095 78.67504 -276.738236 76.584014 C -277.991377 74.492988 -279.192919 72.372476 -280.342041 70.222479 C -281.491164 68.071662 -282.587048 65.894636 -283.629694 63.691401 C -284.672341 61.487347 -285.659292 59.25954 -286.592186 57.007161 C -287.525899 54.754783 -288.403098 52.480291 -289.223783 50.185322 C -290.045287 47.889534 -290.809457 45.575728 -291.517932 43.242264 C -292.225589 40.909619 -292.875093 38.560593 -293.467263 36.196006 C -294.060253 33.830599 -294.594272 31.452907 -295.069319 29.062109 C -295.545185 26.670493 -295.962079 24.269049 -296.320003 21.857775 C -296.677107 19.446502 -296.976059 17.027038 -297.214402 14.601022 C -297.453563 12.175006 -297.632935 9.744076 -297.752515 7.30905 C -297.872096 4.874024 -297.931887 2.43818 -297.931887 -0.000122239 C -297.931887 -2.437605 -297.872096 -4.874269 -297.752515 -7.309294 C -297.632935 -9.74432 -297.453563 -12.17525 -297.214402 -14.601267 C -296.976059 -17.027283 -296.677107 -19.445927 -296.320003 -21.85802 C -295.962079 -24.269293 -295.545185 -26.670738 -295.069319 -29.061535 C -294.594272 -31.453151 -294.060253 -33.830843 -293.467263 -36.195431 C -292.875093 -38.560838 -292.225589 -40.909863 -291.517932 -43.242508 C -290.809457 -45.575153 -290.045287 -47.889779 -289.223783 -50.184747 C -288.402279 -52.480535 -287.525899 -54.754209 -286.592186 -57.006587 C -285.659292 -59.258965 -284.672341 -61.487591 -283.629694 -63.690826 C -282.587048 -65.894881 -281.491164 -68.071907 -280.342041 -70.221904 C -279.192919 -72.371902 -277.991377 -74.492413 -276.738236 -76.583439 C -275.485095 -78.675285 -274.181172 -80.734368 -272.826469 -82.760689 C -271.472585 -84.78783 -270.068739 -86.78057 -268.61657 -88.738911 C -267.1644 -90.697251 -265.664725 -92.618734 -264.118365 -94.503361 C -262.572005 -96.387168 -260.979779 -98.233299 -259.342505 -100.039297 C -257.70523 -101.846114 -256.024547 -103.611159 -254.300453 -105.335252 C -252.577179 -107.058527 -250.812134 -108.73921 -249.005317 -110.376484 C -247.199319 -112.013759 -245.353188 -113.605985 -243.469381 -115.152345 C -241.584755 -116.698705 -239.663271 -118.19838 -237.704931 -119.650549 C -235.74659 -121.102719 -233.75385 -122.506565 -231.726709 -123.860449 C -229.699569 -125.215152 -227.640486 -126.519075 -225.54946 -127.772216 C -223.458433 -129.025357 -221.337922 -130.226899 -219.187924 -131.376021 C -217.037927 -132.525143 -214.860901 -133.621028 -212.656847 -134.663674 C -210.453611 -135.706321 -208.224985 -136.693272 -205.972607 -137.626985 C -203.720229 -138.559879 -201.446555 -139.437078 -199.150768 -140.257763 C -196.855799 -141.079266 -194.541173 -141.844256 -192.208528 -142.551912 C -189.875883 -143.259569 -187.526858 -143.909073 -185.161451 -144.502062 C -182.796863 -145.094233 -180.419171 -145.628251 -178.027555 -146.103299 C -175.636758 -146.579165 -173.235313 -146.996059 -170.82404 -147.353983 C -168.411947 -147.711087 -165.993303 -148.010039 -163.567287 -148.248382 C -161.141271 -148.487543 -158.71034 -148.666914 -156.275314 -148.786495 C -153.840289 -148.906076 -151.403625 -148.965867 -148.966142 -148.965867 C -146.527841 -148.965867 -144.091996 -148.906076 -141.65697 -148.786495 C -139.221945 -148.666914 -136.791014 -148.487543 -134.364998 -148.248382 C -131.938982 -148.010039 -129.519518 -147.711087 -127.108245 -147.353983 C -124.696972 -146.996059 -122.295527 -146.579165 -119.903911 -146.103299 C -117.513114 -145.628251 -115.135421 -145.094233 -112.770015 -144.502062 C -110.405427 -143.909073 -108.056401 -143.259569 -105.723756 -142.551912 C -103.390292 -141.844256 -101.076486 -141.079266 -98.780698 -140.257763 C -96.485729 -139.437078 -94.211237 -138.559879 -91.958859 -137.626985 C -89.70648 -136.693272 -87.478674 -135.706321 -85.274619 -134.663674 C -83.070565 -133.621028 -80.894358 -132.525143 -78.743541 -131.376021 C -76.593544 -130.226899 -74.473032 -129.025357 -72.382006 -127.772216 C -70.29098 -126.519075 -68.231897 -125.215152 -66.204756 -123.860449 C -64.177616 -122.506565 -62.184875 -121.102719 -60.227354 -119.650549 C -58.269014 -118.19838 -56.34753 -116.698705 -54.462904 -115.152345 C -52.578278 -113.605985 -50.732965 -112.013759 -48.926149 -110.376484 C -47.120151 -108.73921 -45.355105 -107.058527 -43.631012 -105.335252 C -41.906919 -103.611159 -40.227054 -101.846114 -38.58978 -100.039297 C -36.952506 -98.233299 -35.360279 -96.387168 -33.813919 -94.503361 C -32.26674 -92.618734 -30.767885 -90.697251 -29.315715 -88.738911 C -27.862726 -86.78057 -26.4597 -84.78783 -25.104996 -82.760689 C -23.751112 -80.734368 -22.44719 -78.675285 -21.19323 -76.583439 C -19.940088 -74.492413 -18.738547 -72.371902 -17.589424 -70.221904 C -16.440302 -68.071907 -15.344418 -65.894881 -14.30259 -63.690826 C -13.259944 -61.487591 -12.272174 -59.258965 -11.33928 -57.006587 C -10.406386 -54.754209 -9.529187 -52.480535 -8.707683 -50.184747 C -7.886998 -47.889779 -7.122009 -45.575153 -6.414352 -43.242508 C -5.706696 -40.909863 -5.056373 -38.560838 -4.464202 -36.195431 C -3.872031 -33.830843 -3.338013 -31.453151 -2.862147 -29.061535 C -2.3871 -26.670738 -1.970205 -24.269293 -1.612282 -21.85802 C -1.254358 -19.445927 -0.956225 -17.027283 -0.717064 -14.601267 C -0.478721 -12.17525 -0.29935 -9.74432 -0.179769 -7.309294 C -0.0601885 -4.874269 -0.000398061 -2.437605 -0.000398061 -0.000122239 Z M -0.000398061 -0.000122239 " stroke="#020202" stroke-width="11.87" stroke-opacity="1" stroke-miterlimit="10"/><g transform="matrix(1, 0, 0, 1, 130, 614)"><g clip-path="url(#254f015447)"><g fill="#000000" fill-opacity="1"><g transform="translate(0.265105, 243.241084)"><g><path d="M 168.96875 -150.421875 L 168.96875 -242.15625 L 219.5625 -242.15625 L 219.5625 0 L 168.96875 0 L 168.96875 -108.59375 L 74.53125 -108.59375 L 74.53125 0 L 23.953125 0 L 23.953125 -242.15625 L 74.53125 -242.15625 L 74.53125 -150.421875 Z M 168.96875 -150.421875 "/></g></g></g><g fill="#000000" fill-opacity="1"><g transform="translate(255.574357, 243.241084)"><g><path d="M 181.78125 0 L 166.265625 -49.921875 L 76.890625 -49.921875 L 60.03125 0 L 6.75 0 L 93.078125 -242.15625 L 151.4375 -242.15625 L 236.765625 0 Z M 152.109375 -91.734375 L 122.09375 -187.515625 L 121.421875 -187.515625 L 90.390625 -91.734375 Z M 152.109375 -91.734375 "/></g></g></g><g fill="#000000" fill-opacity="1"><g transform="translate(510.883609, 243.241084)"><g><path d="M 113.328125 -58.6875 L 165.9375 -242.15625 L 218.546875 -242.15625 L 136.25 0 L 88.03125 0 L 6.40625 -242.15625 L 60.703125 -242.15625 L 112.640625 -58.6875 Z M 113.328125 -58.6875 "/></g></g></g><g fill="#000000" fill-opacity="1"><g transform="translate(747.643351, 243.241084)"><g><path d="M 75.203125 -199.328125 L 75.203125 -148.390625 L 193.25 -148.390625 L 193.25 -105.5625 L 75.203125 -105.5625 L 75.203125 -42.828125 L 209.4375 -42.828125 L 209.4375 0 L 25.625 0 L 25.625 -242.15625 L 203.703125 -242.15625 L 203.703125 -199.328125 Z M 75.203125 -199.328125 "/></g></g></g><g fill="#000000" fill-opacity="1"><g transform="translate(984.403034, 243.241084)"><g><path d="M 173.359375 -73.53125 L 173.359375 -242.15625 L 220.578125 -242.15625 L 220.578125 0 L 169.984375 0 L 71.15625 -172.6875 L 70.484375 -172.6875 L 70.484375 0 L 23.265625 0 L 23.265625 -242.15625 L 76.5625 -242.15625 L 172.6875 -73.53125 Z M 173.359375 -73.53125 "/></g></g></g></g></g></svg>